<svg width="28" height="30" viewBox="0 0 28 30" fill="none" xmlns="http://www.w3.org/2000/svg">
<path d="M18.9337 0.225445C11.0134 1.98551 0.929687 5.24897 0.416334 6.20234C-0.683707 8.21908 1.33304 8.29242 7.4566 6.42235C10.3167 5.50565 14.6802 4.1856 17.1003 3.45223C21.8305 1.98551 23.1505 1.36215 23.1505 0.51879C23.1505 0.115441 22.7105 -0.0312309 21.4271 0.0054369C20.4371 0.0421052 19.337 0.115441 18.9337 0.225445Z" fill="#297B68"/>
<path d="M11.2339 13.2057C4.26697 13.6457 1.88354 14.269 1.88354 15.5891C1.88354 16.7625 3.57028 16.7991 11.3072 15.9191C15.4874 15.4424 20.7676 14.9291 23.041 14.7824C27.4778 14.5257 28.3945 14.2324 27.6245 13.4623C27.0378 12.8756 18.2742 12.729 11.2339 13.2057Z" fill="#297B68"/>
<path d="M3.97506 21.8596C3.82839 21.9696 3.71838 22.4829 3.71838 22.9229C3.71838 24.0597 4.81843 24.573 9.69528 25.7831C11.8587 26.3331 15.8922 27.5064 18.6056 28.4232C25.0225 30.5132 25.8659 30.5132 24.2892 28.4965C23.2991 27.2864 20.5124 26.0031 14.5355 24.023C7.53186 21.7496 4.63509 21.1629 3.97506 21.8596Z" fill="#297B68"/>
</svg>
