<svg width="1440" height="1629" viewBox="0 0 1440 1629" fill="none" xmlns="http://www.w3.org/2000/svg">
<g clip-path="url(#clip0_2_27)">
<g filter="url(#filter0_d_2_27)">
<path d="M0 -770.389H1440V1599.6C1440 1599.6 1262.08 1638.78 1140.92 1599.6C1019.77 1560.42 918.692 1515.34 734.538 1599.6C550.385 1683.86 473.538 1553.05 316.385 1599.6C159.231 1646.15 0 1599.6 0 1599.6V-770.389Z" fill="#1B1E1D"/>
<path d="M0 -770.389H1440V1599.6C1440 1599.6 1262.08 1638.78 1140.92 1599.6C1019.77 1560.42 918.692 1515.34 734.538 1599.6C550.385 1683.86 473.538 1553.05 316.385 1599.6C159.231 1646.15 0 1599.6 0 1599.6V-770.389Z" fill="url(#paint0_linear_2_27)"/>
</g>
<g filter="url(#filter1_f_2_27)">
<ellipse cx="449.062" cy="43.9973" rx="449.062" ry="43.9973" transform="matrix(-0.999967 -0.00817453 -0.00817453 0.999967 1169.41 907)" fill="url(#paint1_radial_2_27)"/>
</g>
</g>
<defs>
<filter id="filter0_d_2_27" x="-4" y="-770.389" width="1448" height="2407" filterUnits="userSpaceOnUse" color-interpolation-filters="sRGB">
<feFlood flood-opacity="0" result="BackgroundImageFix"/>
<feColorMatrix in="SourceAlpha" type="matrix" values="0 0 0 0 0 0 0 0 0 0 0 0 0 0 0 0 0 0 127 0" result="hardAlpha"/>
<feOffset dy="4"/>
<feGaussianBlur stdDeviation="2"/>
<feComposite in2="hardAlpha" operator="out"/>
<feColorMatrix type="matrix" values="0 0 0 0 0 0 0 0 0 0 0 0 0 0 0 0 0 0 0.25 0"/>
<feBlend mode="normal" in2="BackgroundImageFix" result="effect1_dropShadow_2_27"/>
<feBlend mode="normal" in="SourceGraphic" in2="effect1_dropShadow_2_27" result="shape"/>
</filter>
<filter id="filter1_f_2_27" x="133.953" y="766.174" width="1172.09" height="362.302" filterUnits="userSpaceOnUse" color-interpolation-filters="sRGB">
<feFlood flood-opacity="0" result="BackgroundImageFix"/>
<feBlend mode="normal" in="SourceGraphic" in2="BackgroundImageFix" result="shape"/>
<feGaussianBlur stdDeviation="68.5" result="effect1_foregroundBlur_2_27"/>
</filter>
<linearGradient id="paint0_linear_2_27" x1="1890.17" y1="780.282" x2="1344.36" y2="-803.357" gradientUnits="userSpaceOnUse">
<stop stop-color="#297B68"/>
<stop offset="0.466695" stop-color="#146652" stop-opacity="0.57695"/>
<stop offset="1" stop-opacity="0"/>
</linearGradient>
<radialGradient id="paint1_radial_2_27" cx="0" cy="0" r="1" gradientUnits="userSpaceOnUse" gradientTransform="translate(78.3598 44.8599) scale(847.642 11341.9)">
<stop stop-color="#297B68"/>
<stop offset="1" stop-color="#242424"/>
</radialGradient>
<clipPath id="clip0_2_27">
<rect width="1440" height="1629" fill="white"/>
</clipPath>
</defs>
</svg>
