<svg width="1440" height="2405" viewBox="0 0 1440 2405" fill="none" xmlns="http://www.w3.org/2000/svg">
<rect y="20" width="1440" height="1895" fill="url(#paint0_linear_455_6011)"/>
<path d="M0 20C323.5 -36.5001 1118.61 53.508 1440 20V1915C756.988 1839.06 441.792 1840.75 0 1915V20Z" fill="#F5F5F5"/>
<g filter="url(#filter0_f_455_6011)">
<circle cx="1186.5" cy="1602.5" r="302.5" fill="#C6F5F4" fill-opacity="0.32"/>
</g>
<g filter="url(#filter1_f_455_6011)">
<rect x="-300" y="866.851" width="512" height="478" rx="14" transform="rotate(-11.9313 -300 866.851)" fill="#E8E8FF"/>
</g>
<g filter="url(#filter2_f_455_6011)">
<path d="M304.879 1056.76C304.879 1121.93 252.049 1174.76 186.879 1174.76C121.709 1174.76 68.8789 1121.93 68.8789 1056.76C68.8789 991.592 121.709 938.762 186.879 938.762C252.049 938.762 304.879 991.592 304.879 1056.76ZM84.0124 1056.76C84.0124 1113.57 130.067 1159.63 186.879 1159.63C243.691 1159.63 289.745 1113.57 289.745 1056.76C289.745 999.95 243.691 953.895 186.879 953.895C130.067 953.895 84.0124 999.95 84.0124 1056.76Z" fill="#CFD1F7"/>
<path d="M267.879 1057.26C267.879 1102.27 231.614 1138.76 186.879 1138.76C142.144 1138.76 105.879 1102.27 105.879 1057.26C105.879 1012.25 142.144 975.762 186.879 975.762C231.614 975.762 267.879 1012.25 267.879 1057.26ZM119.866 1057.26C119.866 1094.5 149.869 1124.69 186.879 1124.69C223.889 1124.69 253.892 1094.5 253.892 1057.26C253.892 1020.02 223.889 989.835 186.879 989.835C149.869 989.835 119.866 1020.02 119.866 1057.26Z" fill="#CFD1F7"/>
</g>
<g filter="url(#filter3_f_455_6011)">
<path d="M1235.8 841.363C1242 831.39 1256.92 816.067 1266.96 834.557C1279.5 857.67 1288.18 839.2 1281.87 804.095C1275.56 768.99 1287.84 730.546 1298.27 768.535C1299.11 773.216 1303.11 782.16 1312.41 780.49C1324.02 778.403 1324.41 820.611 1343.43 806.323C1351.67 798.802 1330.69 755.461 1348.76 742.552C1357.21 736.201 1353.85 717.479 1350.49 698.756C1347.12 680.033 1363.92 673.392 1370.77 691.489C1374.24 704.152 1373.7 721.16 1388.27 722.166C1400.31 722.419 1400.5 750.168 1409.24 778.796C1415.88 795.723 1429.61 792.048 1431 766.431C1431.35 757.671 1437.27 756.848 1440.2 757.531" stroke="#0F8CE9" stroke-width="3" stroke-linecap="round"/>
</g>
<g filter="url(#filter4_f_455_6011)">
<rect x="1149" y="161.76" width="177" height="30" rx="15" transform="rotate(30 1149 161.76)" fill="#4BAB87"/>
</g>
<path d="M562.5 85L566.018 90.658L572.486 92.2553L568.192 97.3495L568.672 103.995L562.5 101.485L556.328 103.995L556.808 97.3495L552.514 92.2553L558.982 90.658L562.5 85Z" fill="#FECB32"/>
<path d="M56.5 66L60.0179 71.658L66.4861 73.2553L62.1921 78.3495L62.6717 84.9947L56.5 82.485L50.3283 84.9947L50.8079 78.3495L46.5139 73.2553L52.9821 71.658L56.5 66Z" fill="#53BD95"/>
<path d="M333.5 765L337.018 770.658L343.486 772.255L339.192 777.349L339.672 783.995L333.5 781.485L327.328 783.995L327.808 777.349L323.514 772.255L329.982 770.658L333.5 765Z" fill="#FECB32"/>
<path d="M1317 194H1320V213H1317V194Z" fill="#53BD95"/>
<path d="M1328.02 202.134L1328 205.134L1309 205L1309.02 202L1328.02 202.134Z" fill="#53BD95"/>
<path d="M30.5808 600.789L33.0636 602.473L22.3983 618.197L19.9155 616.513L30.5808 600.789Z" fill="#53BD95"/>
<path d="M35.1355 613.706L33.4341 616.177L17.7852 605.401L19.4866 602.931L35.1355 613.706Z" fill="#53BD95"/>
<defs>
<filter id="filter0_f_455_6011" x="384" y="800" width="1605" height="1605" filterUnits="userSpaceOnUse" color-interpolation-filters="sRGB">
<feFlood flood-opacity="0" result="BackgroundImageFix"/>
<feBlend mode="normal" in="SourceGraphic" in2="BackgroundImageFix" result="shape"/>
<feGaussianBlur stdDeviation="250" result="effect1_foregroundBlur_455_6011"/>
</filter>
<filter id="filter1_f_455_6011" x="-347.411" y="713.589" width="694.582" height="668.346" filterUnits="userSpaceOnUse" color-interpolation-filters="sRGB">
<feFlood flood-opacity="0" result="BackgroundImageFix"/>
<feBlend mode="normal" in="SourceGraphic" in2="BackgroundImageFix" result="shape"/>
<feGaussianBlur stdDeviation="25" result="effect1_foregroundBlur_455_6011"/>
</filter>
<filter id="filter2_f_455_6011" x="43.8789" y="913.762" width="286" height="286" filterUnits="userSpaceOnUse" color-interpolation-filters="sRGB">
<feFlood flood-opacity="0" result="BackgroundImageFix"/>
<feBlend mode="normal" in="SourceGraphic" in2="BackgroundImageFix" result="shape"/>
<feGaussianBlur stdDeviation="12.5" result="effect1_foregroundBlur_455_6011"/>
</filter>
<filter id="filter3_f_455_6011" x="1204.3" y="649.332" width="267.398" height="226.977" filterUnits="userSpaceOnUse" color-interpolation-filters="sRGB">
<feFlood flood-opacity="0" result="BackgroundImageFix"/>
<feBlend mode="normal" in="SourceGraphic" in2="BackgroundImageFix" result="shape"/>
<feGaussianBlur stdDeviation="15" result="effect1_foregroundBlur_455_6011"/>
</filter>
<filter id="filter4_f_455_6011" x="989.488" y="17.248" width="457.311" height="403.505" filterUnits="userSpaceOnUse" color-interpolation-filters="sRGB">
<feFlood flood-opacity="0" result="BackgroundImageFix"/>
<feBlend mode="normal" in="SourceGraphic" in2="BackgroundImageFix" result="shape"/>
<feGaussianBlur stdDeviation="75" result="effect1_foregroundBlur_455_6011"/>
</filter>
<linearGradient id="paint0_linear_455_6011" x1="720" y1="20" x2="720" y2="1915" gradientUnits="userSpaceOnUse">
<stop stop-color="#FAF6E7"/>
<stop offset="1" stop-color="#103928"/>
</linearGradient>
</defs>
</svg>
