<svg width="78" height="88" viewBox="0 0 78 88" fill="none" xmlns="http://www.w3.org/2000/svg">
<rect width="78" height="88" rx="30" fill="#FFE4E7"/>
<path d="M38.4833 54.8519C38.8011 54.6601 39.1989 54.6601 39.5167 54.8519L49.331 60.7754C50.0883 61.2325 51.0225 60.5535 50.8216 59.692L48.2171 48.5278C48.1328 48.1663 48.2556 47.7878 48.5362 47.5448L57.2121 40.0289C57.8801 39.4501 57.5239 38.3527 56.6432 38.2768L45.2195 37.2917C44.8506 37.2599 44.5295 37.0269 44.3849 36.6861L39.9205 26.1686C39.5757 25.3562 38.4243 25.3562 38.0795 26.1686L33.6151 36.6861C33.4705 37.0269 33.1494 37.2599 32.7805 37.2917L21.3538 38.277C20.4736 38.3529 20.117 39.4495 20.7843 40.0286L29.4453 47.5454C29.725 47.7882 29.8477 48.1657 29.764 48.5265L27.1743 59.6957C26.9746 60.5567 27.9084 61.2344 28.6652 60.7777L38.4833 54.8519Z" fill="#F43F5E"/>
</svg>
