<svg width="34" height="30" viewBox="0 0 34 30" fill="none" xmlns="http://www.w3.org/2000/svg">
<path d="M5.39549 0.364949C4.89379 1.71567 6.24451 2.33314 10.8755 2.79624C12.2648 2.91201 17.8607 3.64526 23.3407 4.4171C33.8763 5.845 36.1918 5.76782 31.8695 4.18555C29.5926 3.29793 25.0002 2.44891 15.6995 1.0982C6.93916 -0.136746 5.58845 -0.252522 5.39549 0.364949Z" fill="#297B68"/>
<path d="M12.6135 11.8657C2.65682 13.0621 0.071167 13.6024 0.071167 14.5672C0.071167 14.9531 1.49907 15.4548 1.92358 15.1847C2.19372 15.0303 18.7111 13.6024 23.921 13.2936C26.468 13.1779 27.3556 12.7148 26.9697 11.7114C26.6224 10.8624 20.3319 10.9395 12.6135 11.8657Z" fill="#297B68"/>
<path d="M20.7179 20.0472C18.248 20.7032 5.01097 26.492 3.66025 27.534C2.9656 28.0743 2.38672 28.8461 2.38672 29.2706C2.38672 30.467 4.23913 30.1968 8.48424 28.4216C10.5296 27.534 14.3116 25.9517 16.8587 24.9097C23.072 22.2855 25.3103 20.5489 23.3807 19.8156C22.6861 19.5455 22.7247 19.5455 20.7179 20.0472Z" fill="#297B68"/>
</svg>
