<svg width="37" height="36" viewBox="0 0 37 36" fill="none" xmlns="http://www.w3.org/2000/svg">
<rect x="0.5" width="36" height="36" rx="6" fill="#EEF2FF" fill-opacity="0.2"/>
<path d="M13.7498 23.86L18.8698 18.46C19.3898 17.9267 19.7965 17.4667 20.0898 17.08C20.3832 16.68 20.5898 16.3133 20.7098 15.98C20.8432 15.6467 20.9098 15.3 20.9098 14.94C20.9098 14.2333 20.6832 13.68 20.2298 13.28C19.7765 12.88 19.1898 12.68 18.4698 12.68C17.7632 12.68 17.1432 12.8533 16.6098 13.2C16.0765 13.5333 15.6032 14.0533 15.1898 14.76L13.8698 13.66C14.4165 12.7533 15.0765 12.0733 15.8498 11.62C16.6232 11.1533 17.5165 10.92 18.5298 10.92C19.3832 10.92 20.1232 11.0867 20.7498 11.42C21.3898 11.7533 21.8832 12.22 22.2298 12.82C22.5765 13.42 22.7498 14.12 22.7498 14.92C22.7498 15.4933 22.6765 16.0067 22.5298 16.46C22.3965 16.9133 22.1498 17.38 21.7898 17.86C21.4432 18.3267 20.9565 18.8867 20.3298 19.54L16.1898 23.8L13.7498 23.86ZM13.7498 25V23.86L15.3498 23.32H23.0698V25H13.7498Z" fill="#04FDA9"/>
</svg>
