<svg width="37" height="36" viewBox="0 0 37 36" fill="none" xmlns="http://www.w3.org/2000/svg">
<rect x="0.5" width="36" height="36" rx="6" fill="#EEF2FF" fill-opacity="0.2"/>
<path d="M18.0591 25.2C17.1525 25.2 16.3258 25.0333 15.5791 24.7C14.8458 24.3533 14.2258 23.8533 13.7191 23.2L14.9991 21.92C15.3058 22.3867 15.7258 22.76 16.2591 23.04C16.7925 23.3067 17.3858 23.44 18.0391 23.44C18.6525 23.44 19.1791 23.3267 19.6191 23.1C20.0725 22.86 20.4258 22.5267 20.6791 22.1C20.9458 21.6733 21.0791 21.18 21.0791 20.62C21.0791 20.0467 20.9458 19.5533 20.6791 19.14C20.4258 18.7133 20.0658 18.3867 19.5991 18.16C19.1325 17.9333 18.5791 17.82 17.9391 17.82C17.6991 17.82 17.4591 17.84 17.2191 17.88C16.9791 17.9067 16.7458 17.9533 16.5191 18.02L17.3191 16.94C17.5725 16.82 17.8458 16.7267 18.1391 16.66C18.4325 16.5933 18.7258 16.56 19.0191 16.56C19.7658 16.56 20.4325 16.7333 21.0191 17.08C21.6191 17.4267 22.0925 17.9133 22.4391 18.54C22.7991 19.1667 22.9791 19.8933 22.9791 20.72C22.9791 21.6 22.7658 22.38 22.3391 23.06C21.9258 23.7267 21.3525 24.2533 20.6191 24.64C19.8858 25.0133 19.0325 25.2 18.0591 25.2ZM16.5191 18.02V16.88L20.5791 12.26L22.8191 12.24L18.6391 16.98L16.5191 18.02ZM14.3791 12.8V11.12H22.8191V12.24L21.1791 12.8H14.3791Z" fill="#04FDA9"/>
</svg>
